<?xml version="1.0" standalone="no"?>
<!DOCTYPE svg PUBLIC "-//W3C//DTD SVG 20010904//EN"
 "http://www.w3.org/TR/2001/REC-SVG-20010904/DTD/svg10.dtd">
<svg version="1.0" xmlns="http://www.w3.org/2000/svg"
 width="573.000000pt" height="219.000000pt" viewBox="0 0 573.000000 219.000000"
 preserveAspectRatio="xMidYMid meet">

<g transform="translate(0.000000,219.000000) scale(0.100000,-0.100000)"
fill="#000000" stroke="none">
<path d="M1702 1418 c-16 -24 -51 -83 -77 -133 -26 -49 -51 -95 -56 -101 -5
-6 -24 -40 -43 -75 -32 -61 -37 -65 -92 -85 -33 -11 -77 -30 -100 -42 -46 -23
-107 -88 -101 -105 6 -20 46 -19 90 1 23 11 53 23 67 27 20 7 23 5 14 -6 -6
-8 -31 -50 -54 -94 -24 -44 -58 -98 -76 -121 -19 -23 -34 -46 -34 -53 0 -17
25 -13 43 7 13 14 85 143 143 258 21 41 140 105 155 83 10 -15 4 -95 -13 -147
-5 -18 -11 -60 -11 -94 -2 -56 0 -62 31 -89 32 -29 45 -30 100 -13 23 7 2 24
-29 24 -56 0 -69 14 -69 78 0 31 6 80 13 107 l14 50 64 -4 c35 -2 65 -4 67 -5
1 -2 -16 -22 -38 -46 -46 -50 -64 -99 -49 -137 8 -23 13 -24 47 -19 20 4 48
15 62 25 45 31 47 31 42 0 -10 -66 55 -80 122 -25 23 18 53 45 69 59 l27 26 0
-35 c0 -19 5 -44 10 -55 13 -23 57 -25 87 -4 12 8 27 13 35 10 18 -6 43 15 52
43 7 21 52 52 76 52 5 0 10 -20 10 -43 0 -66 40 -95 84 -62 16 12 21 12 40 0
30 -22 40 -19 87 24 34 31 46 36 60 28 11 -7 25 -7 46 0 27 10 30 9 26 -11 -2
-11 2 -30 10 -40 18 -25 75 -15 107 19 17 19 26 21 39 13 13 -8 34 -2 94 27
70 34 80 36 107 25 16 -7 41 -9 55 -6 22 6 25 3 25 -18 0 -38 52 -76 105 -76
55 0 109 29 188 100 50 45 59 51 53 30 -19 -62 -19 -81 5 -106 12 -13 32 -24
43 -24 26 0 108 39 123 59 10 13 15 14 32 4 33 -20 72 -15 130 17 49 27 56 29
71 15 22 -20 93 -19 131 1 24 12 34 13 45 3 12 -9 22 -8 49 6 28 16 38 17 60
7 53 -24 223 -5 233 27 4 12 -5 13 -49 6 -125 -20 -238 -1 -231 38 6 28 -26
20 -63 -18 -43 -42 -106 -62 -135 -42 -19 13 -19 14 11 43 41 39 67 93 49 104
-22 14 -47 -1 -79 -45 -17 -24 -31 -47 -31 -52 0 -26 -105 -83 -153 -83 -25 0
-21 12 13 45 45 43 83 103 76 120 -14 39 -95 -9 -127 -77 -9 -18 -22 -45 -28
-59 -17 -36 -116 -86 -136 -69 -26 21 -17 62 33 151 55 98 63 143 30 179 -19
20 -28 22 -82 17 -124 -10 -275 -108 -340 -220 -18 -31 -35 -46 -53 -50 -39
-7 -54 1 -47 28 9 36 -14 39 -44 7 -15 -16 -52 -42 -81 -57 -52 -26 -54 -26
-48 -5 8 32 -22 38 -47 9 -29 -34 -93 -72 -101 -60 -3 6 1 27 10 47 18 44 6
67 -22 41 -10 -8 -31 -20 -46 -26 -25 -10 -27 -9 -17 8 13 25 13 51 0 51 -5 0
-39 -29 -75 -65 -37 -36 -73 -65 -81 -65 -20 0 -18 7 16 50 30 38 39 83 20 95
-18 11 -67 -38 -80 -80 -12 -39 -34 -64 -57 -65 -8 0 -13 21 -15 58 l-3 57
-32 -1 c-36 -2 -39 2 -19 29 11 15 31 17 150 17 84 0 136 4 136 10 0 6 -48 10
-125 10 -69 0 -125 4 -125 8 0 4 5 13 11 19 13 13 4 33 -15 33 -7 0 -22 -11
-34 -25 -19 -22 -30 -25 -87 -25 -61 0 -65 1 -62 22 3 34 -30 36 -45 2 l-12
-27 -92 6 c-50 4 -103 12 -117 18 -18 8 -34 8 -54 2 -23 -9 -108 -1 -190 16
-2 1 -3 9 -3 19 0 10 -6 27 -14 37 -12 17 -10 21 31 47 24 15 45 28 47 28 9 0
175 117 226 159 63 53 167 157 181 183 6 11 5 19 -2 24 -7 4 -16 -1 -21 -10
-5 -9 -21 -28 -35 -44 -14 -15 -33 -36 -42 -47 -24 -29 -177 -155 -189 -155
-6 0 -12 -3 -14 -7 -3 -7 -63 -49 -110 -78 -106 -64 -110 -65 -156 -40 -2 2
17 38 79 146 20 35 53 96 74 134 21 39 43 77 50 85 21 27 26 38 16 45 -5 3
-23 -14 -39 -37z m1803 -391 c40 -30 -2 -107 -126 -228 -83 -81 -169 -118
-227 -98 -94 33 -19 179 143 279 84 52 175 72 210 47z m-1965 -15 c0 -8 -43
-32 -56 -32 -2 0 1 9 8 20 13 20 48 28 48 12z m-79 -19 c-6 -10 -16 -25 -23
-33 -13 -16 -143 -70 -167 -70 -37 0 54 66 137 100 59 24 65 24 53 3z m403
-113 c14 -5 26 -13 26 -18 0 -29 -161 -162 -196 -162 -35 0 -7 90 41 132 71
62 83 66 129 48z m173 -6 l22 -6 -29 -43 c-30 -44 -122 -127 -151 -137 -9 -4
-21 -3 -28 1 -19 12 24 117 51 124 17 5 20 11 15 36 l-6 31 52 0 c28 0 62 -3
74 -6z m200 -22 c-10 -10 -17 -24 -17 -31 0 -18 -93 -107 -120 -116 -31 -10
-35 0 -23 58 23 107 23 107 104 107 69 0 71 -1 56 -18z"/>
<path d="M2740 1045 c0 -8 7 -15 15 -15 8 0 15 7 15 15 0 8 -7 15 -15 15 -8 0
-15 -7 -15 -15z"/>
</g>
</svg>
